<svg xmlns="http://www.w3.org/2000/svg" xmlns:xlink="http://www.w3.org/1999/xlink" preserveAspectRatio="xMidYMid meet" version="1.0" viewBox="-9.2 -1.2 518.5 517.8" zoomAndPan="magnify" style="fill: rgb(41, 39, 39);" original_string_length="2375"><g id="__id196_slun7qlon5"><path d="M463.4,173.3l27.4-34.5c18.5-23.3,8.4-62.3-22.8-87l-5.7-4.5c1.8-2.2,2.9-5.1,2.9-8.1c0-4.5-2.3-8.4-5.7-10.8 c-2.1-1.5-4.7-2.3-7.5-2.3c-4.2,0-7.9,2-10.3,5.1C411,8.2,372.3,7.6,354.2,30.4l-27.4,34.5l42.9,34.1l-4.1,5.5 c-33.6-21-73.4-33.2-115.9-33.2c-8,0-15.9,0.4-23.6,1.3L204,35.9l10.2-4.2c4.7-1.9,6.9-7.3,4.9-12l-9.4-14c-1.9-4.7-7.3-6.9-12-4.9 L160.9,16c-4.7,1.9-6.9,7.3-4.9,12l9.4,14c1.9,4.7,7.3,6.9,12,4.9l11.5-4.8l19.9,32.9c-26.6,5-51.6,14.9-73.8,28.6l-4.9-5.9 L172,62.8L143.8,29C125,6.4,85.4,8.2,55,32.9c-2.1-3.1-5.4-5.3-9.1-5.8c-3.6-0.5-7,0.5-9.6,2.5c-3.8,2.8-6.1,7.7-5.1,12.9 c0.5,2.7,1.9,5.2,3.8,7l-4.3,3.5C0.1,78.5-9.2,117.7,9.9,140.6l28.2,33.8l44-36.7l4.9,5.9c-35,38.8-56.3,90.2-56.3,146.5 c0,62.8,26.4,119.4,68.7,159.3l-6.4,9.1l-16.1,23c-4.3,6.1-2.8,14.5,3.3,18.7l12.4,8.7c6.1,4.3,14.5,2.8,18.7-3.3l21.3-30.4 c33.9,21.5,74,33.9,117.1,33.9c42.4,0,81.9-12.1,115.5-32.9l7.4,10.5l15.6,22.3c4.3,6.1,12.6,7.6,18.7,3.3l12.4-8.7 c6.1-4.3,7.6-12.6,3.3-18.7L405.1,460l-6.4-9.1c43.1-40,70.1-97.1,70.1-160.6c0-55.8-20.9-106.8-55.3-145.4l5.2-7L463.4,173.3z M439.4,290.2c0,50.6-19.7,98.2-55.5,134c-35.8,35.8-83.4,55.5-134,55.5c-0.1,0-0.2,0-0.4,0c-50.5-0.1-98-19.8-133.7-55.5 c-35.8-35.8-55.5-83.4-55.5-134c0-50.6,19.7-98.2,55.5-134c35.7-35.7,83.2-55.4,133.7-55.5c0.1,0,0.2,0,0.4,0 c50.6,0,98.2,19.7,134,55.5C419.6,192,439.4,239.6,439.4,290.2z M418.4,296.6h-47.6v-10.8h47.6V296.6z M256.1,121.6v47.6h-10.8 v-47.6H256.1z M81.2,283.9h47.6v10.8H81.2V283.9z M243.5,458.8v-47.6h10.8v47.6H243.5z M399,208.7l-22.4,12.9l-2.9-5.1l22.4-12.9 L399,208.7z M168.2,141l12.9,22.4l-5.1,2.9l-12.9-22.4L168.2,141z M100.6,371.8l22.4-12.9l2.9,5.1l-22.4,12.9L100.6,371.8z M331.4,439.4l-12.9-22.4l5.1-2.9l12.9,22.4L331.4,439.4z M338.2,145l-12.9,22.4l-5.1-2.9l12.9-22.4L338.2,145z M104.5,201.8 l22.4,12.9l-2.9,5.1l-22.4-12.9L104.5,201.8z M161.4,435.5l12.9-22.4l5.1,2.9l-12.9,22.4L161.4,435.5z M395,378.7l-22.4-12.9 l2.9-5.1l22.4,12.9L395,378.7z M400.2,342.9l-156.1-53.1l1.9-5.6l156.1,53.1L400.2,342.9z M258.5,290l-2,5.9l-1.9,5.6l-7,1.1l0,0 l-7,1.1l-7.3-9.8l-13.7-148.7l3-0.5l0.7-0.1l3.1-0.5L258.5,290z" style="fill: inherit;"/></g></svg>